<svg xmlns="http://www.w3.org/2000/svg" width="300" height="300"><g transform="matrix(1.01 0 0 1 -2 -2)"><ellipse cx="150.2" cy="151.9" fill="#fff" rx="146.8" ry="148.5"/><path d="m266 242-5 1a266 266 0 0 0-11 1 1 1 0 0 0-1 2l5 11a148 148 0 0 0 12-15z"/><path fill="none" d="m237 233-7 1a1 1 0 0 0-1 2l1 1c1 2 2 4-1 5-15 4-28 10-40 18l55-16c-1-2-1-3 1-3a239 239 0 0 1 24-3l2-2c-9-1-18 1-29 3a1 1 0 0 1-1-1 14 14 0 0 1-3-4 1 1 0 0 0-1-1zm-48 27-14 4 2 2 4-1a126 126 0 0 1 8-5zm-14 4-4-4a1 1 0 0 0-1 0 38 38 0 0 0-7 7z"/><path fill="none" d="M234 243a1 1 0 0 0-1 0c-18 5-35 13-50 24-2 1-2 2-1 3l6 9c1 1 1 2-1 1a60 60 0 0 0-19-6l36 16-1-1v-1l15-9a574 574 0 0 1 19-8 147 147 0 0 0 7-5 5 5 0 0 0 0-2l-9-20a1 1 0 0 0-1-1zM73 216a1 1 0 0 0-1 0 700 700 0 0 0-40 24 148 148 0 0 0 15 17l58 31c-15-17-23-36-29-60l-2-11a1 1 0 0 0-1-1z"/><path fill="none" stroke="#2d384b" stroke-width="2" d="m191 109 4 1h1c1 4 0 8-2 11l-1 2a4 4 0 0 0 1 1c0 2 1 2 1 0a257 257 0 0 0 5-14c2-9 2-18 0-27a1 1 0 0 1 0-1h1a1 1 0 0 0 0-1c0-10-4-17-11-23-2-1-2-3 1-3l3 3a1 1 0 0 0 2-1c7-7 2-18-5-25l-3-2a1 1 0 0 1-1 0c-5-5-11-10-17-12" vector-effect="non-scaling-stroke"/><path fill="none" stroke="#3f3e3e" stroke-width="2" d="M170 18c-11-5-22-6-33-4a1 1 0 0 0 0 1v1c12 6 27 18 27 32a1 1 0 0 0 1 1l6 2a1 1 0 0 0 1-1 64 64 0 0 0-1-24v-1l1 1c4 6 5 19 3 27-3 10 4 23 8 31 3 7 5 15 6 24a1 1 0 0 0 1 1h1" vector-effect="non-scaling-stroke"/><path fill="none" stroke="#6c7689" stroke-width="2" d="M170 18v1c8 9 11 19 10 31" vector-effect="non-scaling-stroke"/><path fill="none" stroke="#3f3e3e" stroke-width="2" d="M180 50c-2 1-2 3 1 4" vector-effect="non-scaling-stroke"/><path fill="none" stroke="#6c7689" stroke-width="2" d="M181 54c-2 3-1 6 0 9l8 24a97 97 0 0 1 2 22" vector-effect="non-scaling-stroke"/><path fill="none" stroke="#2d384b" stroke-width="2" d="M181 54c7-5 9-13 6-23a1 1 0 0 0-1-1c-1-1-2 0-1 1 2 6 1 15-5 19" vector-effect="non-scaling-stroke"/><path fill="none" stroke="#6b787a" stroke-width="2" d="m99 26-4 1v2c2 2 0 2-1 2-7 1-13 7-18 11l-3 4c-1 1-1 1 1 1l1 2a1 1 0 0 1 0 1c-5 3-8 9-11 14l1 4a1 1 0 0 1-1 1l-1 4a1 1 0 0 1-1 1l-1 3c0 2 1 2 2 1 4-4 9-6 15-8" vector-effect="non-scaling-stroke"/><path fill="none" stroke="#3f3e3e" stroke-width="2" d="m78 70 3 1a1 1 0 0 0 1 0l7-8c1-1 1-2-1-2a32 32 0 0 0-9 1" vector-effect="non-scaling-stroke"/><path fill="none" stroke="#6b787a" stroke-width="2" d="M79 62a27 27 0 0 0-10 3c-2 1-2 1-1-1l2-1 11-5" vector-effect="non-scaling-stroke"/><path fill="none" stroke="#3f3e3e" stroke-width="2" d="M81 58c4 0 9-1 11 1l1 1 8-5c2-1 2-2 0-4-4-4-8-7-14-9" vector-effect="non-scaling-stroke"/><path fill="none" stroke="#6b787a" stroke-width="2" d="M87 42h-5c2-2 4-2 6-2" vector-effect="non-scaling-stroke"/><path fill="none" stroke="#3f3e3e" stroke-width="2" d="M88 40c6 1 10 4 14 7a13 13 0 0 1 4 5h1l16-5v-1c0-7-14-13-19-14h-5c-2-2 6-2 7-2 7 2 14 5 19 11 1 1 2 2 2 5a1 1 0 0 0 1 1h16a1 1 0 0 0 1-2c-2-8-12-16-20-19l-7-1c3-2 5-2 7-2 10 4 23 13 24 23a1 1 0 0 0 1 1l9 1a1 1 0 0 0 1-1c0-3 0-6-2-9-4-6-8-11-14-15-8-6-14-7-23-5l-7 3a1 1 0 0 0-1 1l1 1a1 1 0 0 1 0 1v1a1 1 0 0 1-1 0c-5-1-9-1-14 1" vector-effect="non-scaling-stroke"/><path fill="none" stroke="#aab6b8" stroke-width="2" d="M88 40a53 53 0 0 1 9-9c2-1 2-3 2-5M87 42a61 61 0 0 0-6 16m-2 4-1 8" vector-effect="non-scaling-stroke"/><path fill="none" stroke="#212121" stroke-width="2" d="M243 47c-2-8-13-5-16 0-1 1-2 2-2 5l1 17c0 1 0 2 1 1 3-2 6-4 9-4l7 1c1 1 1 1 1-1a132 132 0 0 0-1-19" vector-effect="non-scaling-stroke"/><path fill="none" stroke="#705d5a" stroke-width="2" d="M92 65c-16 11-23 34-20 52l2 9c1 3 3 3 5 1" vector-effect="non-scaling-stroke"/><path fill="none" stroke="#58413d" stroke-width="2" d="M79 127c13-3 24-4 35 0h1a20 20 0 0 1 10-1l1-1c11-9 26-8 39-10h7l9-2" vector-effect="non-scaling-stroke"/><path fill="none" stroke="#442817" stroke-width="2" d="m181 113 5-2v-1a123 123 0 0 0-4-19c-4-12-13-23-11-35a1 1 0 0 0-1-2l-6-1" vector-effect="non-scaling-stroke"/><path fill="none" stroke="#58413d" stroke-width="2" d="M164 53c-12-3-30-5-41-2-9 2-23 7-31 14" vector-effect="non-scaling-stroke"/><path fill="none" stroke="#9c6954" stroke-width="2" d="M164 53c-1 8 0 15 3 21 7 14 12 25 14 39" vector-effect="non-scaling-stroke"/><path fill="none" stroke="#c89d97" stroke-width="2" d="M79 127v-1" vector-effect="non-scaling-stroke"/><path fill="none" stroke="#58413d" stroke-width="2" d="m79 126 10-3a443 443 0 0 1 23-1l-2-1c-10-5-20-6-31-3" vector-effect="non-scaling-stroke"/><path fill="none" stroke="#c89d97" stroke-width="2" d="M79 118c-1-15 3-29 10-41 3-4 7-8 3-12" vector-effect="non-scaling-stroke"/><path fill="none" stroke="#705d5a" stroke-width="2" d="M79 118c-4 3-4 5 0 8" vector-effect="non-scaling-stroke"/><path fill="none" stroke="#7d7464" stroke-width="2" d="M238 77c1-2 1-2 2 0l1 2c1 2 1 2 2 0v-2c1-10-19-7-16 5 1 1 1-7 4-4v21a1 1 0 0 0 1 1l5-1h1V77" vector-effect="non-scaling-stroke"/><path fill="none" stroke="#6b787a" stroke-width="2" d="M75 75a37 37 0 0 0-13 7 25 25 0 0 0-1 5c0 2 0 2 1 1l2-2c1 0 2 0 1 1l-1 8a38 38 0 0 0 4 14l1-6c1-9 3-16 5-22" vector-effect="non-scaling-stroke"/><path fill="none" stroke="#3f3e3e" stroke-width="2" d="m74 81 4-6c1-1 0-1-1-1l-2 1" vector-effect="non-scaling-stroke"/><path fill="none" stroke="#aab6b8" stroke-width="2" d="M74 81c0-2 2-4 1-6" vector-effect="non-scaling-stroke"/><path fill="none" d="M243 106v1l2 17a1 1 0 0 0 0 1c3 2 4 5 4 8l1 18c1 6-1 9-4 12v1l1 20a1 1 0 0 0 1 1l43 10 4-19v-4l1-4a150 150 0 0 0 1-16 150 150 0 0 0-4-32 11 11 0 0 0-2 0c-9 0-13-8-22-7-8 0-11-6-18-6-3 1-5 0-7-1z"/><path fill="none" stroke="#7d7464" stroke-width="2" d="M238 107h-7v1l2 16v1l7-1-2-17" vector-effect="non-scaling-stroke"/><path fill="none" stroke="#442817" stroke-width="2" d="m136 127-4 3a1 1 0 0 0 0 1c2 3 6 11 10 13" vector-effect="non-scaling-stroke"/><path fill="none" stroke="#58413d" stroke-width="2" d="M142 144h13a54 54 0 0 0 14-2c6-2 6-12 6-17 0-2-1-3-3-3l-12 1-1 1c0 6-9 8-12 3a1 1 0 0 1 0-1l-1-1a1 1 0 0 0-1-1l-9 3" vector-effect="non-scaling-stroke"/><path fill="none" stroke="#9c6954" stroke-width="2" d="M142 144a92 92 0 0 0-6-17" vector-effect="non-scaling-stroke"/><path fill="none" stroke="#58413d" stroke-width="2" d="M144 154c2 6 0 11-4 16v1l6 7h2l2-7c1-2 3-3 4-1a1 1 0 0 1 0 1c-1 4-3 7-2 11 1 10 7 15 18 17" vector-effect="non-scaling-stroke"/><path fill="none" stroke="#442817" stroke-width="2" d="M170 199c15-10 23-40 22-56a82 82 0 0 0-3-17 1 1 0 0 0-1-1l-5 3a1 1 0 0 0-1 1c0 8-1 17-10 20-8 2-17 3-27 3a1 1 0 0 0-1 1v1" vector-effect="non-scaling-stroke"/><path fill="none" stroke="#9c6954" stroke-width="2" d="M170 199c-1-3 3-11 4-12 5-8 8-16 9-24a124 124 0 0 0 2-19c0-1-1-2-2 0-5 7-12 11-21 11-7 1-13 0-18-1" vector-effect="non-scaling-stroke"/><path fill="none" stroke="gray" stroke-width="2" d="m153 127-2-2c-1-1-2 0-3 1l2 2 3-1" vector-effect="non-scaling-stroke"/><path fill="none" stroke="#212121" stroke-width="2" d="M227 150a1 1 0 0 0 2 0l9-3h6a1 1 0 0 0 1-1l1-15c-5-7-21-3-20 5l1 14" vector-effect="non-scaling-stroke"/><path fill="none" stroke="#442817" stroke-width="2" d="m81 134-3 1a1 1 0 0 0 0 2c1 5 4 18 11 17" vector-effect="non-scaling-stroke"/><path fill="none" stroke="#58413d" stroke-width="2" d="M89 154c6 0 11-1 14-3 4-2 6-12 7-16a1 1 0 0 0 0-1l-5-2a1 1 0 0 0-1 1l-1 2a1 1 0 0 0 1 1l1 1a1 1 0 0 1-1 1 57 57 0 0 0-16 5 1 1 0 0 1-1 0l-1-2a1 1 0 0 1 0-1l4-2a1 1 0 0 0 0-1l-1-3a1 1 0 0 0-1-1l-7 1" vector-effect="non-scaling-stroke"/><path fill="none" stroke="gray" stroke-width="2" d="m100 134-2-1-2 3h3c1 0 2-1 1-2" vector-effect="non-scaling-stroke"/><path fill="none" stroke="#442817" stroke-width="2" d="M114 151c-6 9-18 11-27 11" vector-effect="non-scaling-stroke"/><path fill="none" stroke="#705d5a" stroke-width="2" d="m87 162-3-1a1 1 0 0 0-1 1 59 59 0 0 0 4 16c3 8 11 18 16 26 2 2 3 2 5 1" vector-effect="non-scaling-stroke"/><path fill="none" stroke="#58413d" stroke-width="2" d="M108 205c4-3 9-8 8-14-1-5-6-9-10-12 0 0-3-3 1-1 2 0 5 2 8 5a1 1 0 0 0 1-1 30 30 0 0 1 5-7l-1-1a21 21 0 0 1-5-2c-3-3-7-9-3-13" vector-effect="non-scaling-stroke"/><path fill="none" stroke="#705d5a" stroke-width="2" d="M112 159c5-1 2 3 2 4l2 4c3 3 6 4 10 5" vector-effect="non-scaling-stroke"/><path fill="none" stroke="#58413d" stroke-width="2" d="M126 172c11-1 17-8 16-19a1 1 0 0 0 0-1c-9-3-12-10-16-18l-3-1" vector-effect="non-scaling-stroke"/><path fill="none" stroke="#705d5a" stroke-width="2" d="m123 133-4 1a1 1 0 0 0-1 1l-4 16" vector-effect="non-scaling-stroke"/><path fill="none" stroke="#c89d97" stroke-width="2" d="m123 133-4 23c-1 4 0 7 2 10h1c3 1 4 3 4 6m-14-13-1-1" vector-effect="non-scaling-stroke"/><path fill="none" stroke="#b38570" stroke-width="2" d="M111 158c2-2 3-4 3-7" vector-effect="non-scaling-stroke"/><path fill="none" stroke="#9c6954" stroke-width="2" d="M111 158c-6 7-13 9-22 7" vector-effect="non-scaling-stroke"/><path fill="none" stroke="#c89d97" stroke-width="2" d="M108 205c-5-14-14-25-19-40" vector-effect="non-scaling-stroke"/><path fill="none" stroke="#3f3e3e" stroke-width="2" d="M194 168c-3 11-8 17-16 28-2 3-5 5-9 7h-1c-8-1-14-5-17-12-4-6-8-12-14-18a1 1 0 0 0-1 0 26 26 0 0 1-11 3 1 1 0 0 0-1 1l-6 8a1 1 0 0 0 0 1c4 8-1 16-6 22-3 4-6 4-9 0-8-8-15-17-21-27" vector-effect="non-scaling-stroke"/><path fill="none" stroke="#2d384b" stroke-width="2" d="m186 239 20-8a1 1 0 0 0 1-1c6-18 7-35 1-54a1649 1649 0 0 0-9-26c-1-2-2-2-2 0a118 118 0 0 1-3 18" vector-effect="non-scaling-stroke"/><path fill="none" stroke="#6c7689" stroke-width="2" d="M186 239c8-16 12-32 11-49l-1-21a1 1 0 0 0-2-1" vector-effect="non-scaling-stroke"/><path fill="none" stroke="#aab6b8" stroke-width="2" d="m111 286-17-48c-7-19-11-38-12-57" vector-effect="non-scaling-stroke"/><path fill="none" stroke="#7d7464" stroke-width="2" d="M241 152c-4 0-8 2-11 4a1 1 0 0 0 0 2l1 2a484 484 0 0 1 3 33 1 1 0 0 0 1 1l6-1a1 1 0 0 0 1-1 479 479 0 0 1 0-39 1 1 0 0 0-1-1" vector-effect="non-scaling-stroke"/><path fill="none" stroke="#58413d" stroke-width="2" d="M228 159a5 5 0 0 0 0 2v1l1-1a16 16 0 0 1 0-2c0-2 0-2-1 0" vector-effect="non-scaling-stroke"/><path fill="none" stroke="#080808" stroke-width="2" d="m219 203 8-7 1-1v-4a1 1 0 0 0-1-1 27 27 0 0 0-10-2 1 1 0 0 0-1 2v22a186 186 0 0 1-3 16l1 1 4-2a1 1 0 0 0 1-1l-1-23a1 1 0 0 1 1 0" vector-effect="non-scaling-stroke"/><path fill="none" stroke="#58413d" stroke-width="2" d="M137 195c1 6 4 11 7 16a1 1 0 0 0 1 0l5-2a1 1 0 0 0 0-1 59 59 0 0 1-9-14" vector-effect="non-scaling-stroke"/><path fill="none" stroke="#442817" stroke-width="2" d="M141 194c-3-6-11-8-13 0v7c3 2 3 1 2-2l-1-1c0-4 2-8 6-7l2 4" vector-effect="non-scaling-stroke"/><path fill="none" stroke="#212121" stroke-width="2" d="M248 202c-6-4-16-2-22 2l-1 1v20a1 1 0 0 0 2 1 102 102 0 0 1 22-2 1 1 0 0 0 1-1 160 160 0 0 1 0-17c0-2 0-4-2-4" vector-effect="non-scaling-stroke"/><path fill="none" stroke="#58413d" stroke-width="2" d="M125 212c3 1 5 2 8 1l1-1-1-4" vector-effect="non-scaling-stroke"/><path fill="none" stroke="#9c6954" stroke-width="2" d="M133 208c-4-1-7 1-8 4" vector-effect="non-scaling-stroke"/><path fill="none" stroke="#7d7464" stroke-width="2" d="m147 233 2-2a1 1 0 0 0 1-1l-8-12s-1 0 0 0a299 299 0 0 0 4 14 1 1 0 0 0 1 1" vector-effect="non-scaling-stroke"/><path fill="none" stroke="#080808" stroke-width="2" d="M146 244c-2 1-2 2-1 3a426 426 0 0 0 8 16 1 1 0 0 0 2 0l4-5" vector-effect="non-scaling-stroke"/><path fill="none" stroke="#212121" stroke-width="2" d="m159 258 8-7v-1l-10-16a1 1 0 0 0-1 0c-4 3-8 6-10 10" vector-effect="non-scaling-stroke"/><path fill="none" stroke="#282828" stroke-width="2" d="M159 258a81 81 0 0 0-13-14" vector-effect="non-scaling-stroke"/><path fill="#fae8c8" d="M229 26v12a1 1 0 0 0 1 1 13 13 0 0 1 6-1 1 1 0 0 0 1-1v-5a147 147 0 0 0-8-6z"/><path fill="#7e7c7b" d="M170 18v1c8 9 11 19 10 31-2 1-2 3 1 4-2 3-1 6 0 9l8 24a97 97 0 0 1 2 22h-1a1 1 0 0 1-1 0c-1-10-3-18-6-25-4-8-11-21-8-31 2-8 1-21-3-27a1 1 0 0 0-1-1v1a64 64 0 0 1 1 24 1 1 0 0 1-1 1l-6-2a1 1 0 0 1-1-1c0-14-15-26-27-32v-1a1 1 0 0 1 0-1c11-2 22-1 33 4z"/><path fill="#7e7c7b" d="M88 40a53 53 0 0 1 9-9c2-1 2-3 2-5 5-2 10-2 14-1a1 1 0 0 0 1 0v-1a1 1 0 0 0 0-1l-1-1a1 1 0 0 1 1-1l7-3c9-2 15-1 23 5 6 4 11 9 14 15 2 3 2 6 2 9a1 1 0 0 1-1 1l-9-1a1 1 0 0 1-1-1c-1-10-14-19-24-23-2 0-4 0-7 2l7 1c8 3 18 11 20 19a1 1 0 0 1-1 2h-16a1 1 0 0 1-1-1c0-3-1-4-2-5-5-6-12-9-19-11-1 0-9 0-7 2h5c5 1 19 7 19 14a1 1 0 0 1 0 1l-16 5a1 1 0 0 1-1 0 13 13 0 0 0-4-5c-4-3-8-6-14-7Z"/><path fill="#597096" d="M170 18a47 47 0 0 1 18 12l4 2c6 7 11 18 4 25a1 1 0 0 1-2 1l-3-3c-3 0-3 2-1 3 7 6 11 14 11 23a1 1 0 0 1 0 1h-1a1 1 0 0 0 0 1c2 9 2 18 0 27a257 257 0 0 1-4 14c-1 2-2 2-2 0a4 4 0 0 1-1-1l1-2c2-3 3-7 2-11a1 1 0 0 0-1 0l-4-1-2-22-8-24c-1-3-2-6 0-9 7-5 9-13 6-23a1 1 0 0 0-1-1c-1-1-2 0-1 1 2 6 1 15-5 19 1-12-2-22-10-31z"/><path fill="#d5f0f4" d="M99 26c0 2 0 4-2 5a53 53 0 0 0-9 9c-2 0-4 0-6 2h5a61 61 0 0 0-6 16l-11 5a5 5 0 0 0-2 1c-1 2-1 2 1 1a27 27 0 0 1 10-3l-1 8a42 42 0 0 0-15 8c-1 1-2 1-2-1l1-3a1 1 0 0 0 1-1l1-4a1 1 0 0 0 1-1l-1-4c3-5 6-11 11-14a1 1 0 0 0 0-1l-1-2c-2 0-2 0-1-1l3-4c5-4 11-10 18-11 1 0 3 0 1-2v-2z"/><path d="M181 54c-3-1-3-3-1-4 6-4 7-13 5-19-1-1 0-2 1-1a1 1 0 0 1 1 1c3 10 1 18-6 23z"/><path fill="#414141" d="M227 47c3-5 14-8 16 0a132 132 0 0 1 2 19c0 2-1 2-2 1l-7-1c-3 0-6 2-9 4-1 1-1 0-1-1a256 256 0 0 1-1-17z"/><path fill="#7e7c7b" d="M87 42c6 2 10 5 14 9 2 2 2 3 0 4l-8 5a1 1 0 0 1-1-1c-2-2-7-1-11-1a61 61 0 0 1 6-16z"/><path fill="#b0817a" d="M165 53c-2 8-1 15 2 22 7 13 12 24 14 38a28 28 0 0 1-9 2h-7c-13 2-28 1-39 10a1 1 0 0 1-1 1 20 20 0 0 0-10 1 1 1 0 0 1-1 0c-11-4-22-3-35 0v-1l10-3a443 443 0 0 1 23-1l-2-1c-10-5-20-6-31-3-1-15 3-29 10-41 3-4 7-8 3-12 8-7 22-12 31-14 12-3 29-1 42 2zm5 45c-7-4-13-4-19 0s-11 9-14 15v1a1 1 0 0 0 1 0c6-5 19-15 27-11 4 1 7 1 6-5a1 1 0 0 0-1 0z"/><path fill="#87502d" d="m165 53 5 2a1 1 0 0 1 1 1c-2 12 7 23 11 35a123 123 0 0 1 4 19 1 1 0 0 1 0 1l-5 2c-2-14-7-25-14-38-3-7-4-14-2-22z"/><path fill="#7e7c7b" d="m78 70 1-8a32 32 0 0 1 10-1v2l-7 8a1 1 0 0 1-1 0z"/><path fill="#dfb9b3" d="M92 65c4 4 0 8-3 12-7 12-11 26-10 41-4 3-4 5 0 8v1c-2 2-4 2-5 0l-2-10c-3-18 4-41 20-52Z"/><path fill="#fae8c8" d="M239 77c-2 7-1 14-1 22a1 1 0 0 1-1 0l-4 1a1 1 0 0 1-2-1V79a1 1 0 0 0 0-1c-3-3-3 5-4 4-3-12 17-15 16-5a9 9 0 0 1 0 2c-1 2-1 2-2 0a8 8 0 0 0-1-2c-1-2-1-2-1 0z"/><path fill="#7e7c7b" d="M74 81c0-1 2-4 1-6l2-1c1 0 2 0 1 1z"/><path fill="#d5f0f4" d="M75 75c1 2-1 5-1 6a120 120 0 0 0-6 28 38 38 0 0 1-4-14l1-8c1-1 0-1-1-1l-2 2c-1 1-1 1-1-1a25 25 0 0 1 1-5 37 37 0 0 1 13-7z"/><path d="M170 98h1c1 6-2 6-6 5-8-4-21 6-27 11a1 1 0 0 1-1 0v-1c3-6 8-11 14-15s12-4 19 0z"/><rect width="7.3" height="17.4" x="219" y="130" fill="#fae8c8" rx=".3" transform="rotate(-6)"/><path d="M79 126c-4-3-4-5 0-8 11-3 21-2 31 3a4 4 0 0 1 2 1c1 1 1 2-1 2a442 442 0 0 0-22-1z"/><path fill="#b0817a" d="M142 144a92 92 0 0 0-6-17 46 46 0 0 1 9-2 1 1 0 0 1 1 0l1 1a1 1 0 0 0 0 1c3 5 12 3 12-3l1-1 12-1c2 0 3 1 3 3 0 5 0 15-6 17a54 54 0 0 1-14 2z"/><path fill="#87502d" d="M170 199c-1-3 3-11 4-12 5-8 8-16 9-24a124 124 0 0 0 2-19h-2c-5 7-12 11-21 11-7 1-13 0-18-1v-1a1 1 0 0 1 1-1c10 0 19-1 27-3 9-3 10-12 10-20a1 1 0 0 1 1-1l5-3a1 1 0 0 1 1 1 82 82 0 0 1 3 17c1 16-7 47-22 56z"/><ellipse cx="175.8" cy="88" fill="#fff" rx="2.3" ry="1.8" transform="rotate(13)"/><path fill="#414141" d="m227 150-1-14c-1-8 15-12 20-5l-1 15a1 1 0 0 1-1 1 30 30 0 0 1-3 0h-3l-9 3a1 1 0 0 1-2 0z"/><path fill="#87502d" d="M136 127a92 92 0 0 1 6 17c-4-2-8-10-10-13a1 1 0 0 1 0-1z"/><path fill="#b0817a" d="m89 154-8-20 7-1a1 1 0 0 1 1 1l1 3a1 1 0 0 1 0 1l-4 2a1 1 0 0 0 0 1l1 2h1a57 57 0 0 1 16-5 1 1 0 0 0 1-1l-1-1a1 1 0 0 1-1-1l1-2a1 1 0 0 1 1-1l5 2v1c-1 4-3 14-7 16-3 2-8 3-14 3z"/><ellipse cx="30.2" cy="164" fill="#fff" rx="2.2" ry="1.6" transform="rotate(-26)"/><path fill="#dfb9b3" d="m123 133-4 24c-1 3 0 6 2 9h1c3 1 4 3 4 6-4-1-7-2-10-5l-2-4c0-1 3-5-2-4l-1-1c2-2 3-4 3-7l4-16a1 1 0 0 1 1-1z"/><path fill="#b0817a" d="m123 133 3 1c4 8 7 15 16 18a1 1 0 0 1 0 1c1 11-5 18-16 19 0-3-1-5-4-6a1 1 0 0 1-1 0c-2-3-3-6-2-9z"/><path fill="#87502d" d="m81 134 8 20c-7 1-10-12-11-17a1 1 0 0 1 0-2z"/><path fill="#b0817a" d="M170 199c-11-2-17-7-18-17-1-4 1-7 2-11a1 1 0 0 0 0-1c-1-1-3-1-4 1l-2 7h-2l-6-7a1 1 0 0 1 0-1c4-5 6-10 4-16 5 1 11 2 18 1 9 0 16-4 21-11h2a124 124 0 0 1-2 19c-1 8-4 16-9 24-1 1-5 9-4 12z"/><path fill="#597096" d="M186 239c8-16 12-32 11-49l-1-21a1 1 0 0 0-2-1 118 118 0 0 0 3-18c1-2 1-2 2 0a1650 1650 0 0 1 9 27c6 18 5 35-1 53a1 1 0 0 1-1 1z"/><path fill="#87502d" d="M114 151c0 3-1 5-3 7-6 7-13 9-22 7l-2-3c9 0 21-2 27-11z"/><path fill="#fae8c8" d="M241 152a1 1 0 0 1 1 1 479 479 0 0 0 0 40 1 1 0 0 1-1 1 21 21 0 0 0-6 0 1 1 0 0 1-1-1 484 484 0 0 0-3-33 4 4 0 0 0-1-2 1 1 0 0 1 0-2c3-2 7-4 11-4z"/><path fill="#b0817a" d="M228 159c1-2 1-2 1 0a15 15 0 0 0 0 2l-1 1a1 1 0 0 1 0-1 5 5 0 0 1 0-2zm-117-1 1 1c-4 4 0 10 4 13a21 21 0 0 0 4 2l1 1a30 30 0 0 0-5 7 1 1 0 0 1-1 1l-8-5c-4-2-1 1-1 1 4 3 9 7 10 12 1 6-4 11-8 14-5-14-14-25-19-40 9 2 16 0 22-7z"/><path fill="#dfb9b3" d="m87 162 2 3c5 15 14 26 19 40-2 1-3 1-5-1-5-8-13-18-16-26a59 59 0 0 1-4-16 1 1 0 0 1 1-1z"/><path fill="#d5f0f4" d="M81 177a194 194 0 0 0 13 61l18 48c-9-7-16-17-21-29a124 124 0 0 1-10-80Z"/><path fill="#0f0f0f" d="M219 203a1 1 0 0 0-1 0l1 23a1 1 0 0 1-1 1l-4 2-1-1a186 186 0 0 0 3-16v-22a1 1 0 0 1 1-2l10 2a1 1 0 0 1 1 1v5a1 1 0 0 1-1 0z"/><path fill="#87502d" d="M141 195h-4c0-2 0-3-2-4-4-1-6 3-6 7l1 1c1 3 1 4-1 2s-2-4-1-7c2-8 10-6 13 1z"/><path d="M250 194c-2 0-2 1 0 1 6 3 6 9 6 15a80 80 0 0 1 0 13v2l19 3a1 1 0 0 0 1-1h1l2-14c1-4 4-5 7-5l2-5-10-2a281 281 0 0 0-28-7zm16 48-5 1a266 266 0 0 0-11 1 1 1 0 0 0-1 2l5 11a148 148 0 0 0 12-15z"/><path fill="#054839" d="M224 236c-18 3-35 10-49 21a1 1 0 0 0 0 1l4 3a1 1 0 0 0 1 0c14-9 28-18 46-22a1 1 0 0 0 0-1zm42 6a121 121 0 0 0-16 2 1 1 0 0 0-1 2l5 11a148 148 0 0 0 12-15zm-34 6a1 1 0 0 0-1 0c-16 4-31 11-44 21a1 1 0 0 0 0 1 102 102 0 0 1 9 14l1 1 1 1h1a200 200 0 0 1 40-20 1 1 0 0 0 1-1l-8-16a1 1 0 0 0 0-1z"/><path fill="#b0817a" d="M141 195a59 59 0 0 0 9 13 1 1 0 0 1 0 2l-5 1a1 1 0 0 1-1 0c-3-5-6-10-7-16z"/><path fill="#414141" d="M248 202c2 0 2 2 2 4a160 160 0 0 0 0 17 1 1 0 0 1-1 1l-22 2a1 1 0 0 1-2-1v-20l1-1c6-4 16-6 22-2z"/><path fill="#87502d" d="M133 208c-4 0-7 1-8 5l-3-2a1 1 0 0 1 0-1l2-7a1 1 0 0 1 2 0z"/><path fill="#b0817a" d="m133 208 1 4a1 1 0 0 1-1 1h-8c1-4 4-5 8-5z"/><path fill="#0f0f0f" d="M77 213a1 1 0 0 0-1 0 778 778 0 0 0-44 26c16 22 37 39 62 50a96 96 0 0 1 19 6l3 1c-13-20-43-47-36-69l-2-13a1 1 0 0 0-1-1z"/><path fill="#fae8c8" d="M147 233a1 1 0 0 1-1-1 299 299 0 0 1-4-14l8 12a1 1 0 0 1-1 1z"/><path fill="#414141" d="m154 264-11-18 13-12a1 1 0 0 1 1 0l10 16a1 1 0 0 1 0 1z"/><path d="m149 10-12 1c-9 2-19 3-27 9a1 1 0 0 1 0 1c-8 0-14 2-20 6-5 4-20 13-19 21a1 1 0 0 1-1 1 36 36 0 0 0-9 18c-5 8-3 21 0 30 2 7 3 11 7 16a1 1 0 0 1 1 0 52 52 0 0 0 4 15 1 1 0 0 1-1 1l-2 4c0 5 1 10 4 17l1 4c0 9 1 16-1 27-1 7-2 15-1 25a1 1 0 0 1-1 1l-45 26a148 148 0 0 0 5 7 701 701 0 0 1 40-24 1 1 0 0 1 2 1l2 12c6 23 12 45 29 59 7 6 16 9 25 11a145 145 0 0 0 17 1h5a145 145 0 0 0 52-10l-1-1v-1a148 148 0 0 1 34-17l7-5v-1l-9-21a1 1 0 0 0-2 0c-18 4-35 12-50 23-2 1-2 2-1 4l6 8 4 8-20 7-6-10-8-15 12-9a1 1 0 0 1 1 0l7 6 3-1c14-11 30-18 48-23 3 0 2-2 1-5a19 19 0 0 1-1-1 1 1 0 0 1 1-2h7a1 1 0 0 1 1 0 14 14 0 0 0 3 4l1 1c11-2 20-4 29-3a149 149 0 0 0 5-8 1 1 0 0 1-1 0l-19-3a1 1 0 0 1 0-1v-14c0-6 0-12-6-15-2 0-1-1 1-1a281 281 0 0 1 27 7l10 2a149 149 0 0 0 3-8l-43-10a1 1 0 0 1-1-1l-1-20a1 1 0 0 1 0-1c3-3 5-6 4-12l-1-18c0-3-1-6-4-8a1 1 0 0 1 0-1l-2-17 1-1c2 1 4 2 7 1 7 0 10 6 18 6 9-1 13 7 22 7h2a150 150 0 0 0-1-6l-6-2a123 123 0 0 1-16-5 1 1 0 0 1-1 0c-1-3-4-4-7-4-7 1-12-1-19-2a1 1 0 0 1 0-1l-1-14a1 1 0 0 1 0-1c5-2 6-6 7-11l-2-27c-1-4-3-6-6-8a1 1 0 0 1 0-1v-3a147 147 0 0 0-4-3v5a1 1 0 0 1-1 1 13 13 0 0 0-6 1 1 1 0 0 1-1-1V27a146 146 0 0 0-4-3v17a1 1 0 0 1 0 1l-4 7 1 27c0 5 2 10 5 13v11l-1 2a1 1 0 0 0 0 1l1 3 2 20a1 1 0 0 1-1 1c-2 1-4 3-4 6l-2 24c0 6 2 10 6 12a1 1 0 0 1 0 1v10a1 1 0 0 1-1 1l-12-1a1 1 0 0 1-1-1 10964 10964 0 0 0-13-37 95 95 0 0 1-4-16 1 1 0 0 1 1 0c9-17 8-35 5-54 0-3-2-7-5-10a1 1 0 0 1 0-2l4-5c5-16-9-27-21-35-10-7-21-10-32-10Zm0 3a54 54 0 0 1 38 17 1 1 0 0 0 1 0l3 2c7 7 12 18 5 25a1 1 0 0 1-2 1l-3-3c-3 0-3 2-1 3 7 6 11 14 11 23a1 1 0 0 1 0 1h-1a1 1 0 0 0 0 1c2 9 2 18 0 27a257 257 0 0 1-4 14c-1 2-2 2-2 0a4 4 0 0 1-1-1l1-2c2-3 3-7 2-11a1 1 0 0 0-1 0l-4-1h-1a1 1 0 0 1-1 0c-1-10-3-18-6-25-4-8-11-21-8-31 2-8 1-21-3-27a1 1 0 0 0-1-1v1a64 64 0 0 1 1 24 1 1 0 0 1-1 1l-6-2a1 1 0 0 1-1-1c0-14-15-26-27-32v-1a1 1 0 0 1 0-1zm-21 4c5 0 10 1 16 6 6 4 11 9 14 15 2 3 2 6 2 9a1 1 0 0 1-1 1l-9-1a1 1 0 0 1-1-1c-1-10-14-19-24-23-2 0-4 0-7 2l7 1c8 3 18 11 20 19a1 1 0 0 1-1 2h-16a1 1 0 0 1-1-1c0-3-1-4-2-5-5-6-12-9-19-11-1 0-9 0-7 2h5c5 1 19 7 19 14a1 1 0 0 1 0 1l-16 5a1 1 0 0 1-1 0 13 13 0 0 0-4-5c-4-3-8-6-14-7-2 0-4 0-6 2h5c6 2 10 5 14 9 2 2 2 3 0 4l-8 5a1 1 0 0 1-1-1c-2-2-7-1-11-1l-11 5a5 5 0 0 0-2 1c-1 2-1 2 1 1a27 27 0 0 1 10-3 32 32 0 0 1 9-1c2 0 2 1 1 2l-7 8a1 1 0 0 1-1 0l-3-1c-6 2-11 4-15 8-1 1-2 1-2-1l1-3 1-1 1-4a1 1 0 0 0 1-1l-1-4c3-5 6-11 11-14a1 1 0 0 0 0-1l-1-2c-2 0-2 0-1-1l3-4c5-4 11-10 18-11 1 0 3 0 1-2v-2l4-1c5-2 10-2 14-1a1 1 0 0 0 1 0v-1a1 1 0 0 0 0-1l-1-1a1 1 0 0 1 1-1l7-3zm107 25c4 0 7 1 8 5a132 132 0 0 1 2 19c0 2-1 2-2 1l-7-1c-3 0-6 2-9 4-1 1-1 0-1-1a256 256 0 0 1-1-17l2-5c1-3 5-5 8-5zm-97 7 27 4 5 2a1 1 0 0 1 1 1c-2 12 7 23 11 35a123 123 0 0 1 4 19 1 1 0 0 1 0 1l-5 2a28 28 0 0 1-9 2h-7c-13 2-28 1-39 10a1 1 0 0 1-1 1 20 20 0 0 0-10 1 1 1 0 0 1-1 0c-11-4-22-3-35 0-2 2-4 2-5 0l-2-10c-3-18 4-41 20-52 8-7 22-12 31-14zm100 22c3 0 6 2 5 6a9 9 0 0 1 0 2c-1 2-1 2-2 0a8 8 0 0 0-1-2c-1-2-1-2-1 0-2 7-1 14-1 22a1 1 0 0 1-1 0l-4 1a1 1 0 0 1-2-1V79a1 1 0 0 0 0-1c-3-3-3 5-4 4-2-7 6-11 11-11zM77 74c1 0 2 0 1 1l-4 6a120 120 0 0 0-6 28 38 38 0 0 1-4-14l1-8c1-1 0-1-1-1l-2 2c-1 1-1 1-1-1a25 25 0 0 1 1-5 37 37 0 0 1 13-7zm161 33h1l1 17-7 1v-1l-2-16v-1zm-66 15c2 0 3 1 3 3 0 5 0 15-6 17a54 54 0 0 1-14 2h-13c-4-2-8-10-10-13a1 1 0 0 1 0-1l4-3a46 46 0 0 1 9-2 1 1 0 0 1 1 0l1 1a1 1 0 0 0 0 1c3 5 12 3 12-3l1-1zm-22 3a3 3 0 0 1 1 0l2 2-3 1-2-2zm38 0a1 1 0 0 1 1 1 82 82 0 0 1 3 17c1 16-7 47-22 56-11-2-17-7-18-17-1-4 1-7 2-11a1 1 0 0 0 0-1c-1-1-3-1-4 1l-2 7h-2l-6-7a1 1 0 0 1 0-1c4-5 6-10 4-16v-1a1 1 0 0 1 1-1c10 0 19-1 27-3 9-3 10-12 10-20l1-1zm49 2c4 0 7 1 9 4l-1 15a1 1 0 0 1-1 1 30 30 0 0 1-3 0h-3l-9 3a1 1 0 0 1-2 0l-1-14c0-5 6-8 11-9zm-132 5 5 2v1c-1 4-3 14-7 16-3 2-8 3-14 3-7 1-10-12-11-17a1 1 0 0 1 0-2l3-1 7-1a1 1 0 0 1 1 1l1 3a1 1 0 0 1 0 1l-4 2a1 1 0 0 0 0 1l1 2h1a57 57 0 0 1 16-5 1 1 0 0 0 1-1l-1-1a1 1 0 0 1-1-1l1-2a1 1 0 0 1 1-1zm19 1 2 1c4 8 7 15 16 18a1 1 0 0 1 0 1c1 11-5 18-16 19-4-1-7-2-10-5l-2-4c0-1 3-5-2-4-4 4 0 10 4 13a21 21 0 0 0 4 2l1 1a30 30 0 0 0-5 7 1 1 0 0 1-1 1l-8-5c-4-2-1 1-1 1 4 3 9 7 10 12 1 6-4 11-8 14-2 1-3 1-5-1-5-8-13-18-16-26a59 59 0 0 1-4-16 1 1 0 0 1 1-1l3 1c9 0 21-2 27-11l4-16a1 1 0 0 1 1-1l4-1a3 3 0 0 1 1 0zm-26 0 2 1c1 1 0 2-1 2h-3zm100 15 1 2a1650 1650 0 0 1 9 27c6 18 5 35-1 53a1 1 0 0 1-1 1l-20 8-13 8a1 1 0 0 1-2 0l-9-16c-3-4-5-5-9-3a1 1 0 0 1-1 0l-6-12a1 1 0 0 1 0-2l7-3a1 1 0 0 1 1 0s10 4 6 1l-8-8c-4-4-7-13-12-17s-13-1-16 4l-3 8-5 17v1a1 1 0 0 0 1 0l2-2a1 1 0 0 1 1-1c3 2 5 3 9 3a52 52 0 0 1 5 0 1 1 0 0 1 1 1l6 20v1c-3 5-4 7-1 13l20 36c-18-4-34 13-48-2-9-7-16-17-21-29-11-25-16-51-11-78l2 1v1c6 10 13 19 21 28 3 3 6 3 9-1 5-6 10-14 6-22a1 1 0 0 1 0-1l6-8a1 1 0 0 1 1-1 26 26 0 0 0 11-3 1 1 0 0 1 1 0c6 6 10 12 14 18 3 7 9 11 17 12h1c4-2 7-4 9-7 8-11 13-17 16-28a118 118 0 0 0 3-18zm43 4a1 1 0 0 1 1 1 479 479 0 0 0 0 40 1 1 0 0 1-1 1h-6a1 1 0 0 1-1-1 484 484 0 0 0-3-33 4 4 0 0 0-1-2 1 1 0 0 1 0-2c3-2 7-4 11-4zm-12 6v3l-1 1a1 1 0 0 1 0-1 5 5 0 0 1 0-2zm-12 30a27 27 0 0 1 10 2 1 1 0 0 1 1 1v5a1 1 0 0 1-1 0l-8 7a1 1 0 0 0-1 0l1 23a1 1 0 0 1-1 1l-4 2-1-1a186 186 0 0 0 3-16v-22a1 1 0 0 1 1-2zm-83 1c3 0 6 2 7 6a59 59 0 0 0 9 13 1 1 0 0 1 0 2l-5 1a1 1 0 0 1-1 0c-3-5-6-10-7-16l-2-4c-4-1-6 3-6 7l1 1c1 3 1 4-1 2s-2-4-1-7c1-4 4-5 6-5zm106 11c3 0 6 0 8 2 2 0 2 2 2 4a160 160 0 0 0 0 17 1 1 0 0 1-1 1l-22 2a1 1 0 0 1-2-1v-20l1-1c4-2 9-4 14-4zm-115 3a1 1 0 0 1 1 0l7 5 1 4a1 1 0 0 1-1 1 16 16 0 0 1-8 0l-3-2a1 1 0 0 1 0-1l2-7a1 1 0 0 1 1 0zm160 5c-3 1-5 1-6 5a115 115 0 0 0-2 14 149 149 0 0 0 9-19zm-143 10 8 12a1 1 0 0 1-1 1l-2 2a1 1 0 0 1-1-1 299 299 0 0 1-4-14zm15 16 10 16a1 1 0 0 1 0 1l-8 7-4 5a1 1 0 0 1-2 0 426 426 0 0 1-8-16c-1-1-1-2 1-3 2-4 6-7 10-10a1 1 0 0 1 1 0zm67 2 2 2a1 1 0 0 1 0 1c-18 4-32 13-46 22a1 1 0 0 1-1 0l-4-3a1 1 0 0 1 0-1c14-11 31-18 49-21zm45 2-24 3c-1 0-2 1-1 3l7 16 3-3-5-11a1 1 0 0 1 1-2 268 268 0 0 1 11-1l5-1a148 148 0 0 0 3-4zm-38 10a1 1 0 0 1 1 1l8 16a1 1 0 0 1-1 1 200 200 0 0 0-40 20 1 1 0 0 1-1 0 10 10 0 0 1-1-1l-1-1a102 102 0 0 0-9-14 1 1 0 0 1 0-1c13-10 28-17 44-21z"/><path fill="#7e7c7b" d="m186 239-13 8a1 1 0 0 1-2 0l-9-16c-3-4-5-5-9-3a1 1 0 0 1-1 0l-6-12a1 1 0 0 1 0-2l7-3a1 1 0 0 1 1 0s10 4 6 1l-8-8c-4-4-7-13-12-17s-13-1-16 4l-3 8-5 17v1a1 1 0 0 0 1 0l2-2a1 1 0 0 1 1-1c3 2 5 3 9 3h5a1 1 0 0 1 1 1l6 20v1c-3 5-4 7-1 13 5 8 17 29 20 37-17 15-35 13-48-3l-18-48c-7-19-11-38-12-57 6 10 13 19 21 28 3 3 6 3 9-1 5-6 10-14 6-22a1 1 0 0 1 0-1l6-8a1 1 0 0 1 1-1 26 26 0 0 0 11-3 1 1 0 0 1 1 0 64 64 0 0 1 14 18c3 7 9 11 17 12a1 1 0 0 0 1 0c4-2 7-4 9-7 8-11 13-17 16-28a1 1 0 0 1 2 1l1 21c1 17-3 33-11 49z"/><path fill="#f55649" d="M237 234h-7a1 1 0 0 0-1 2l1 1c1 3 2 5-1 5-18 5-34 12-48 23l-3 1-7-6a1 1 0 0 0-1 0l-12 9 14 26c7 1 14-2 21-6 1-1-3-9-5-10l-6-8c-1-2-1-3 1-4 15-11 32-19 50-23a1 1 0 0 1 2 0l9 21v1a147 147 0 0 0 7-6l-7-16c-1-2 0-3 1-3a239 239 0 0 1 24-3l2-2c-9-1-18 1-29 3a1 1 0 0 1-1-1 14 14 0 0 1-3-4 1 1 0 0 0-1 0zm0 37a574 574 0 0 0-19 8l-15 9a1 1 0 0 0 0 1l1 1a146 146 0 0 0 33-19z"/><path fill="#0f0f0f" d="m249 194 1 1c6 3 6 9 6 15a80 80 0 0 1 0 14 1 1 0 0 0 0 1l19 3a1 1 0 0 0 1-1h1v-1a149 149 0 0 0 8-17l1-1a152 152 0 0 0 2-5l-10-2a281 281 0 0 0-27-7 6 6 0 0 0-1 0 3 3 0 0 0-1 0z"/><ellipse cx="150.2" cy="151.9" fill="none" stroke="#000" stroke-linejoin="round" stroke-width="3" rx="146.8" ry="148.5"/></g></svg>